<svg width="89" height="32" viewBox="0 0 89 32" fill="none" xmlns="http://www.w3.org/2000/svg">
<path d="M17.2605 27.3002C20.3962 26.4821 23.2435 24.9283 25.0843 22.8551C26.8973 20.8132 27.7436 18.2697 26.9671 15.2936C26.1712 12.243 23.8071 9.26118 20.8108 7.24337C17.8083 5.22134 14.3565 4.28791 11.4543 5.0451C8.57995 5.795 6.46839 8.09931 5.27053 11.1256C4.07208 14.1534 3.84633 17.7815 4.66367 20.9144C5.47176 24.0117 7.11927 25.9512 9.23398 26.9601C11.378 27.9831 14.1402 28.1142 17.2605 27.3002Z" stroke="url(#paint0_linear_79_6)" stroke-width="4"/>
<path d="M39.1094 17.7969H43.375V23.5312C42.776 23.7292 42.1562 23.8828 41.5156 23.9922C40.875 24.1016 40.1562 24.1562 39.3594 24.1562C38.1979 24.1562 37.2135 23.9271 36.4062 23.4688C35.6042 23.0052 34.9948 22.3359 34.5781 21.4609C34.1615 20.5807 33.9531 19.5208 33.9531 18.2812C33.9531 17.0885 34.1849 16.0547 34.6484 15.1797C35.112 14.2995 35.7865 13.6198 36.6719 13.1406C37.5573 12.6562 38.6302 12.4141 39.8906 12.4141C40.5104 12.4141 41.1094 12.4766 41.6875 12.6016C42.2708 12.7214 42.8047 12.888 43.2891 13.1016L42.6328 14.6484C42.2474 14.4661 41.8151 14.3125 41.3359 14.1875C40.8568 14.0625 40.3594 14 39.8438 14C39.026 14 38.3203 14.1771 37.7266 14.5312C37.138 14.8854 36.6849 15.3854 36.3672 16.0312C36.0495 16.6719 35.8906 17.4297 35.8906 18.3047C35.8906 19.1536 36.0182 19.8984 36.2734 20.5391C36.5286 21.1797 36.9271 21.6797 37.4688 22.0391C38.0156 22.3932 38.7214 22.5703 39.5859 22.5703C40.0182 22.5703 40.3854 22.5469 40.6875 22.5C40.9896 22.4531 41.2682 22.401 41.5234 22.3438V19.3984H39.1094V17.7969ZM53.5781 19.6562C53.5781 20.375 53.4844 21.013 53.2969 21.5703C53.1094 22.1276 52.8359 22.599 52.4766 22.9844C52.1172 23.3646 51.6849 23.6562 51.1797 23.8594C50.6745 24.0573 50.1042 24.1562 49.4688 24.1562C48.875 24.1562 48.3307 24.0573 47.8359 23.8594C47.3411 23.6562 46.9115 23.3646 46.5469 22.9844C46.1875 22.599 45.9089 22.1276 45.7109 21.5703C45.513 21.013 45.4141 20.375 45.4141 19.6562C45.4141 18.7031 45.5781 17.8958 45.9062 17.2344C46.2396 16.5677 46.7135 16.0599 47.3281 15.7109C47.9427 15.362 48.6745 15.1875 49.5234 15.1875C50.3203 15.1875 51.0234 15.362 51.6328 15.7109C52.2422 16.0599 52.7188 16.5677 53.0625 17.2344C53.4062 17.901 53.5781 18.7083 53.5781 19.6562ZM47.3047 19.6562C47.3047 20.2865 47.3802 20.8255 47.5312 21.2734C47.6875 21.7214 47.9271 22.0651 48.25 22.3047C48.5729 22.5391 48.9896 22.6562 49.5 22.6562C50.0104 22.6562 50.4271 22.5391 50.75 22.3047C51.0729 22.0651 51.3099 21.7214 51.4609 21.2734C51.612 20.8255 51.6875 20.2865 51.6875 19.6562C51.6875 19.026 51.612 18.4922 51.4609 18.0547C51.3099 17.612 51.0729 17.276 50.75 17.0469C50.4271 16.8125 50.0078 16.6953 49.4922 16.6953C48.7318 16.6953 48.1771 16.9505 47.8281 17.4609C47.4792 17.9714 47.3047 18.7031 47.3047 19.6562ZM57.5234 11.8438V14.7734C57.5234 15.112 57.513 15.4453 57.4922 15.7734C57.4766 16.0964 57.4609 16.349 57.4453 16.5312H57.5234C57.7578 16.1562 58.0833 15.8411 58.5 15.5859C58.9219 15.3255 59.4609 15.1953 60.1172 15.1953C61.1432 15.1953 61.9688 15.5729 62.5938 16.3281C63.2188 17.0781 63.5312 18.1901 63.5312 19.6641C63.5312 20.6432 63.388 21.4661 63.1016 22.1328C62.8151 22.7995 62.4115 23.3047 61.8906 23.6484C61.375 23.987 60.7682 24.1562 60.0703 24.1562C59.4141 24.1562 58.8828 24.0365 58.4766 23.7969C58.0755 23.5521 57.7604 23.2682 57.5312 22.9453H57.3984L57.0625 24H55.6875V11.8438H57.5234ZM59.6328 16.6875C59.112 16.6875 58.6979 16.7917 58.3906 17C58.0885 17.2083 57.8698 17.5208 57.7344 17.9375C57.599 18.349 57.5286 18.8724 57.5234 19.5078V19.6719C57.5234 20.6354 57.6745 21.3724 57.9766 21.8828C58.2839 22.3932 58.8411 22.6484 59.6484 22.6484C60.2891 22.6484 60.7812 22.3906 61.125 21.875C61.4688 21.3542 61.6406 20.6094 61.6406 19.6406C61.6406 18.6615 61.4688 17.9245 61.125 17.4297C60.7865 16.9349 60.2891 16.6875 59.6328 16.6875ZM71.4688 21.5312C71.4688 22.099 71.3307 22.5781 71.0547 22.9688C70.7786 23.3594 70.375 23.6562 69.8438 23.8594C69.3177 24.0573 68.6719 24.1562 67.9062 24.1562C67.3021 24.1562 66.7812 24.112 66.3438 24.0234C65.9115 23.9401 65.5026 23.8099 65.1172 23.6328V22.0469C65.5286 22.2396 65.9896 22.4062 66.5 22.5469C67.0156 22.6875 67.5026 22.7578 67.9609 22.7578C68.5651 22.7578 69 22.6641 69.2656 22.4766C69.5312 22.2839 69.6641 22.0286 69.6641 21.7109C69.6641 21.5234 69.6094 21.3568 69.5 21.2109C69.3958 21.0599 69.1979 20.9062 68.9062 20.75C68.6198 20.5885 68.1979 20.3958 67.6406 20.1719C67.0938 19.9531 66.6328 19.7344 66.2578 19.5156C65.8828 19.2969 65.599 19.0339 65.4062 18.7266C65.2135 18.4141 65.1172 18.0156 65.1172 17.5312C65.1172 16.7656 65.4193 16.1849 66.0234 15.7891C66.6328 15.388 67.4375 15.1875 68.4375 15.1875C68.9688 15.1875 69.4688 15.2422 69.9375 15.3516C70.4115 15.4557 70.875 15.6094 71.3281 15.8125L70.75 17.1953C70.3594 17.0234 69.9661 16.8828 69.5703 16.7734C69.1797 16.6589 68.7812 16.6016 68.375 16.6016C67.901 16.6016 67.5391 16.6745 67.2891 16.8203C67.0443 16.9661 66.9219 17.1745 66.9219 17.4453C66.9219 17.6484 66.9818 17.8203 67.1016 17.9609C67.2214 18.1016 67.4271 18.2422 67.7188 18.3828C68.0156 18.5234 68.4271 18.6979 68.9531 18.9062C69.4688 19.1042 69.9141 19.3125 70.2891 19.5312C70.6693 19.7448 70.9609 20.0078 71.1641 20.3203C71.3672 20.6328 71.4688 21.0365 71.4688 21.5312ZM75.2891 11.8438V17.7188C75.2891 17.9844 75.2786 18.276 75.2578 18.5938C75.237 18.9062 75.2161 19.2005 75.1953 19.4766H75.2344C75.3698 19.2943 75.5312 19.0807 75.7188 18.8359C75.9115 18.5911 76.0938 18.3776 76.2656 18.1953L78.9062 15.3516H81.0156L77.5547 19.0703L81.2422 24H79.0859L76.3203 20.2031L75.2891 21.0859V24H73.4531V11.8438H75.2891ZM85.8438 22.6719C86.0833 22.6719 86.3203 22.651 86.5547 22.6094C86.7891 22.5625 87.0026 22.5078 87.1953 22.4453V23.8359C86.9922 23.9245 86.7292 24 86.4062 24.0625C86.0833 24.125 85.7474 24.1562 85.3984 24.1562C84.9089 24.1562 84.4688 24.0755 84.0781 23.9141C83.6875 23.7474 83.3776 23.4635 83.1484 23.0625C82.9193 22.6615 82.8047 22.1068 82.8047 21.3984V16.75H81.625V15.9297L82.8906 15.2812L83.4922 13.4297H84.6484V15.3516H87.125V16.75H84.6484V21.375C84.6484 21.8125 84.7578 22.138 84.9766 22.3516C85.1953 22.5651 85.4844 22.6719 85.8438 22.6719Z" fill="black"/>
<defs>
<linearGradient id="paint0_linear_79_6" x1="8.92857" y1="6.76028" x2="23.9286" y2="23.546" gradientUnits="userSpaceOnUse">
<stop stop-color="#000000"/>
<stop offset="1" stop-color="#000000"/>
</linearGradient>
</defs>
</svg>
